<mxfile host="app.diagrams.net" agent="Mozilla/5.0 (Macintosh; Intel Mac OS X 10_15_7) AppleWebKit/537.36 (KHTML, like Gecko) Chrome/129.0.0.0 Safari/537.36" version="24.7.17">
  <diagram name="Page-1" id="m74GUtvZsmZqAEqC0ScD">
    <mxGraphModel dx="2170" dy="844" grid="1" gridSize="10" guides="1" tooltips="1" connect="1" arrows="1" fold="1" page="1" pageScale="1" pageWidth="827" pageHeight="1169" math="0" shadow="0">
      <root>
        <mxCell id="0" />
        <mxCell id="1" parent="0" />
        <mxCell id="6SCwgLZgFgUroboN4gBO-17" value="" style="rounded=1;whiteSpace=wrap;html=1;" vertex="1" parent="1">
          <mxGeometry x="80" y="965.8799999999999" width="430" height="132.75" as="geometry" />
        </mxCell>
        <mxCell id="6SCwgLZgFgUroboN4gBO-4" value="Web and Mobile" style="rounded=1;whiteSpace=wrap;html=1;" vertex="1" parent="1">
          <mxGeometry x="240" y="180" width="110" height="60" as="geometry" />
        </mxCell>
        <mxCell id="6SCwgLZgFgUroboN4gBO-33" style="edgeStyle=orthogonalEdgeStyle;rounded=0;orthogonalLoop=1;jettySize=auto;html=1;entryX=0;entryY=0.5;entryDx=0;entryDy=0;" edge="1" parent="1" source="6SCwgLZgFgUroboN4gBO-5" target="6SCwgLZgFgUroboN4gBO-27">
          <mxGeometry relative="1" as="geometry">
            <Array as="points">
              <mxPoint x="300" y="470" />
              <mxPoint x="300" y="650" />
            </Array>
          </mxGeometry>
        </mxCell>
        <mxCell id="6SCwgLZgFgUroboN4gBO-42" style="edgeStyle=orthogonalEdgeStyle;rounded=0;orthogonalLoop=1;jettySize=auto;html=1;" edge="1" parent="1" source="6SCwgLZgFgUroboN4gBO-5" target="6SCwgLZgFgUroboN4gBO-13">
          <mxGeometry relative="1" as="geometry" />
        </mxCell>
        <mxCell id="6SCwgLZgFgUroboN4gBO-5" value="Calendar Service" style="rounded=1;whiteSpace=wrap;html=1;" vertex="1" parent="1">
          <mxGeometry x="-10" y="430" width="120" height="50" as="geometry" />
        </mxCell>
        <mxCell id="6SCwgLZgFgUroboN4gBO-34" style="edgeStyle=orthogonalEdgeStyle;rounded=0;orthogonalLoop=1;jettySize=auto;html=1;" edge="1" parent="1" source="6SCwgLZgFgUroboN4gBO-9">
          <mxGeometry relative="1" as="geometry">
            <mxPoint x="560" y="690" as="targetPoint" />
          </mxGeometry>
        </mxCell>
        <mxCell id="6SCwgLZgFgUroboN4gBO-46" style="edgeStyle=orthogonalEdgeStyle;rounded=0;orthogonalLoop=1;jettySize=auto;html=1;" edge="1" parent="1" source="6SCwgLZgFgUroboN4gBO-9" target="6SCwgLZgFgUroboN4gBO-10">
          <mxGeometry relative="1" as="geometry" />
        </mxCell>
        <mxCell id="6SCwgLZgFgUroboN4gBO-9" value="Event Service" style="rounded=1;whiteSpace=wrap;html=1;" vertex="1" parent="1">
          <mxGeometry x="-35" y="850" width="95" height="60" as="geometry" />
        </mxCell>
        <mxCell id="6SCwgLZgFgUroboN4gBO-35" style="edgeStyle=orthogonalEdgeStyle;rounded=0;orthogonalLoop=1;jettySize=auto;html=1;entryX=0.25;entryY=1;entryDx=0;entryDy=0;" edge="1" parent="1" source="6SCwgLZgFgUroboN4gBO-10" target="6SCwgLZgFgUroboN4gBO-27">
          <mxGeometry relative="1" as="geometry">
            <Array as="points">
              <mxPoint x="200" y="770" />
              <mxPoint x="520" y="770" />
            </Array>
          </mxGeometry>
        </mxCell>
        <mxCell id="6SCwgLZgFgUroboN4gBO-10" value="Notification Service" style="rounded=1;whiteSpace=wrap;html=1;" vertex="1" parent="1">
          <mxGeometry x="250" y="850" width="120" height="60" as="geometry" />
        </mxCell>
        <mxCell id="6SCwgLZgFgUroboN4gBO-45" style="edgeStyle=orthogonalEdgeStyle;rounded=0;orthogonalLoop=1;jettySize=auto;html=1;entryX=0.5;entryY=0;entryDx=0;entryDy=0;" edge="1" parent="1" source="6SCwgLZgFgUroboN4gBO-13" target="6SCwgLZgFgUroboN4gBO-9">
          <mxGeometry relative="1" as="geometry">
            <mxPoint x="30" y="790" as="targetPoint" />
          </mxGeometry>
        </mxCell>
        <mxCell id="6SCwgLZgFgUroboN4gBO-13" value="" style="sketch=0;points=[[0,0,0],[0.25,0,0],[0.5,0,0],[0.75,0,0],[1,0,0],[0,1,0],[0.25,1,0],[0.5,1,0],[0.75,1,0],[1,1,0],[0,0.25,0],[0,0.5,0],[0,0.75,0],[1,0.25,0],[1,0.5,0],[1,0.75,0]];outlineConnect=0;fontColor=#232F3E;fillColor=#8C4FFF;strokeColor=#ffffff;dashed=0;verticalLabelPosition=bottom;verticalAlign=top;align=center;html=1;fontSize=12;fontStyle=0;aspect=fixed;shape=mxgraph.aws4.resourceIcon;resIcon=mxgraph.aws4.managed_streaming_for_kafka;" vertex="1" parent="1">
          <mxGeometry x="11" y="612" width="78" height="78" as="geometry" />
        </mxCell>
        <mxCell id="6SCwgLZgFgUroboN4gBO-15" value="" style="outlineConnect=0;dashed=0;verticalLabelPosition=bottom;verticalAlign=top;align=center;html=1;shape=mxgraph.aws3.sql_master;fillColor=#2E73B8;gradientColor=none;" vertex="1" parent="1">
          <mxGeometry x="110" y="1000" width="60" height="64.5" as="geometry" />
        </mxCell>
        <mxCell id="6SCwgLZgFgUroboN4gBO-49" style="edgeStyle=orthogonalEdgeStyle;rounded=0;orthogonalLoop=1;jettySize=auto;html=1;" edge="1" parent="1" source="6SCwgLZgFgUroboN4gBO-16">
          <mxGeometry relative="1" as="geometry">
            <mxPoint x="20" y="920" as="targetPoint" />
          </mxGeometry>
        </mxCell>
        <mxCell id="6SCwgLZgFgUroboN4gBO-16" value="" style="outlineConnect=0;dashed=0;verticalLabelPosition=bottom;verticalAlign=top;align=center;html=1;shape=mxgraph.aws3.sql_slave;fillColor=#2E73B8;gradientColor=none;" vertex="1" parent="1">
          <mxGeometry x="320" y="1000" width="60" height="64.5" as="geometry" />
        </mxCell>
        <mxCell id="6SCwgLZgFgUroboN4gBO-48" style="edgeStyle=orthogonalEdgeStyle;rounded=0;orthogonalLoop=1;jettySize=auto;html=1;" edge="1" parent="1" source="6SCwgLZgFgUroboN4gBO-18">
          <mxGeometry relative="1" as="geometry">
            <mxPoint x="-10" y="920" as="targetPoint" />
          </mxGeometry>
        </mxCell>
        <mxCell id="6SCwgLZgFgUroboN4gBO-18" value="" style="outlineConnect=0;dashed=0;verticalLabelPosition=bottom;verticalAlign=top;align=center;html=1;shape=mxgraph.aws3.sql_slave;fillColor=#2E73B8;gradientColor=none;" vertex="1" parent="1">
          <mxGeometry x="220" y="1000" width="60" height="64.5" as="geometry" />
        </mxCell>
        <mxCell id="6SCwgLZgFgUroboN4gBO-50" style="edgeStyle=orthogonalEdgeStyle;rounded=0;orthogonalLoop=1;jettySize=auto;html=1;" edge="1" parent="1" source="6SCwgLZgFgUroboN4gBO-20">
          <mxGeometry relative="1" as="geometry">
            <mxPoint x="40" y="920" as="targetPoint" />
          </mxGeometry>
        </mxCell>
        <mxCell id="6SCwgLZgFgUroboN4gBO-20" value="" style="outlineConnect=0;dashed=0;verticalLabelPosition=bottom;verticalAlign=top;align=center;html=1;shape=mxgraph.aws3.sql_slave;fillColor=#2E73B8;gradientColor=none;" vertex="1" parent="1">
          <mxGeometry x="414" y="1000" width="60" height="64.5" as="geometry" />
        </mxCell>
        <mxCell id="6SCwgLZgFgUroboN4gBO-21" value="Relational Db" style="text;html=1;align=center;verticalAlign=middle;whiteSpace=wrap;rounded=0;" vertex="1" parent="1">
          <mxGeometry x="240" y="1070" width="100" height="30" as="geometry" />
        </mxCell>
        <mxCell id="6SCwgLZgFgUroboN4gBO-22" value="Amazon DynamoDB" style="sketch=0;outlineConnect=0;fontColor=#232F3E;gradientColor=none;strokeColor=#ffffff;fillColor=#232F3E;dashed=0;verticalLabelPosition=middle;verticalAlign=bottom;align=center;html=1;whiteSpace=wrap;fontSize=10;fontStyle=1;spacing=3;shape=mxgraph.aws4.productIcon;prIcon=mxgraph.aws4.dynamodb;" vertex="1" parent="1">
          <mxGeometry x="720" y="990" width="80" height="110" as="geometry" />
        </mxCell>
        <mxCell id="6SCwgLZgFgUroboN4gBO-23" value="" style="rounded=1;whiteSpace=wrap;html=1;" vertex="1" parent="1">
          <mxGeometry x="420" y="1290" width="120" height="60" as="geometry" />
        </mxCell>
        <mxCell id="6SCwgLZgFgUroboN4gBO-31" style="edgeStyle=orthogonalEdgeStyle;rounded=0;orthogonalLoop=1;jettySize=auto;html=1;entryX=0.5;entryY=0;entryDx=0;entryDy=0;" edge="1" parent="1" source="6SCwgLZgFgUroboN4gBO-24" target="6SCwgLZgFgUroboN4gBO-27">
          <mxGeometry relative="1" as="geometry" />
        </mxCell>
        <mxCell id="6SCwgLZgFgUroboN4gBO-24" value="User Service" style="rounded=1;whiteSpace=wrap;html=1;" vertex="1" parent="1">
          <mxGeometry x="370" y="440" width="120" height="60" as="geometry" />
        </mxCell>
        <mxCell id="6SCwgLZgFgUroboN4gBO-25" value="" style="rounded=1;whiteSpace=wrap;html=1;" vertex="1" parent="1">
          <mxGeometry x="1130" y="690" width="120" height="60" as="geometry" />
        </mxCell>
        <mxCell id="6SCwgLZgFgUroboN4gBO-26" value="Stateless Architecute" style="text;html=1;align=center;verticalAlign=middle;resizable=0;points=[];autosize=1;strokeColor=none;fillColor=none;" vertex="1" parent="1">
          <mxGeometry x="690" y="1130" width="140" height="30" as="geometry" />
        </mxCell>
        <mxCell id="6SCwgLZgFgUroboN4gBO-32" style="edgeStyle=orthogonalEdgeStyle;rounded=0;orthogonalLoop=1;jettySize=auto;html=1;" edge="1" parent="1" source="6SCwgLZgFgUroboN4gBO-27" target="6SCwgLZgFgUroboN4gBO-22">
          <mxGeometry relative="1" as="geometry" />
        </mxCell>
        <mxCell id="6SCwgLZgFgUroboN4gBO-27" value="Authenticaion Service" style="rounded=1;whiteSpace=wrap;html=1;" vertex="1" parent="1">
          <mxGeometry x="490" y="620" width="120" height="60" as="geometry" />
        </mxCell>
        <mxCell id="6SCwgLZgFgUroboN4gBO-29" value="" style="rounded=1;whiteSpace=wrap;html=1;" vertex="1" parent="1">
          <mxGeometry x="-510" y="670" width="120" height="60" as="geometry" />
        </mxCell>
        <mxCell id="6SCwgLZgFgUroboN4gBO-41" style="edgeStyle=orthogonalEdgeStyle;rounded=0;orthogonalLoop=1;jettySize=auto;html=1;exitX=0.5;exitY=1;exitDx=0;exitDy=0;exitPerimeter=0;entryX=0.5;entryY=0;entryDx=0;entryDy=0;" edge="1" parent="1" source="6SCwgLZgFgUroboN4gBO-36" target="6SCwgLZgFgUroboN4gBO-5">
          <mxGeometry relative="1" as="geometry" />
        </mxCell>
        <mxCell id="6SCwgLZgFgUroboN4gBO-36" value="" style="outlineConnect=0;dashed=0;verticalLabelPosition=bottom;verticalAlign=top;align=center;html=1;shape=mxgraph.aws3.application_load_balancer;fillColor=#F58534;gradientColor=none;" vertex="1" parent="1">
          <mxGeometry x="45" y="280" width="69" height="72" as="geometry" />
        </mxCell>
        <mxCell id="6SCwgLZgFgUroboN4gBO-37" value="Amazon DynamoDB" style="sketch=0;outlineConnect=0;fontColor=#232F3E;gradientColor=none;strokeColor=#ffffff;fillColor=#232F3E;dashed=0;verticalLabelPosition=middle;verticalAlign=bottom;align=center;html=1;whiteSpace=wrap;fontSize=10;fontStyle=1;spacing=3;shape=mxgraph.aws4.productIcon;prIcon=mxgraph.aws4.dynamodb;" vertex="1" parent="1">
          <mxGeometry x="570" y="990" width="80" height="110" as="geometry" />
        </mxCell>
        <mxCell id="6SCwgLZgFgUroboN4gBO-40" style="edgeStyle=orthogonalEdgeStyle;rounded=0;orthogonalLoop=1;jettySize=auto;html=1;entryX=0.5;entryY=0;entryDx=0;entryDy=0;entryPerimeter=0;" edge="1" parent="1" source="6SCwgLZgFgUroboN4gBO-4" target="6SCwgLZgFgUroboN4gBO-36">
          <mxGeometry relative="1" as="geometry" />
        </mxCell>
        <mxCell id="6SCwgLZgFgUroboN4gBO-47" style="edgeStyle=orthogonalEdgeStyle;rounded=0;orthogonalLoop=1;jettySize=auto;html=1;entryX=0.105;entryY=0.116;entryDx=0;entryDy=0;entryPerimeter=0;" edge="1" parent="1" source="6SCwgLZgFgUroboN4gBO-9" target="6SCwgLZgFgUroboN4gBO-17">
          <mxGeometry relative="1" as="geometry" />
        </mxCell>
      </root>
    </mxGraphModel>
  </diagram>
</mxfile>
